<svg id="Cross" xmlns="http://www.w3.org/2000/svg" viewBox="0 0 210.27 210.27"><defs><style>.cls-1{fill:#231f20;}</style></defs><title>SBN Icon- Cross</title><path class="cls-1" d="M141.73,36.6A105.13,105.13,0,1,0,246.86,141.73,105.25,105.25,0,0,0,141.73,36.6Zm0,205.27A100.13,100.13,0,1,1,241.86,141.73,100.25,100.25,0,0,1,141.73,241.86Z" transform="translate(-36.6 -36.6)"/><path class="cls-1" d="M194.25,89.21a2.5,2.5,0,0,0-3.54,0l-49,49-49-49a2.5,2.5,0,0,0-3.54,3.54l49,49-49,49a2.5,2.5,0,1,0,3.54,3.54l49-49,49,49a2.5,2.5,0,0,0,3.54-3.54l-49-49,49-49A2.5,2.5,0,0,0,194.25,89.21Z" transform="translate(-36.6 -36.6)"/></svg>