<svg id="Alert" xmlns="http://www.w3.org/2000/svg" viewBox="0 0 210.27 210.27"><defs><style>.cls-1{fill:#231f20;}</style></defs><title>SBN Icon- Alert</title><path class="cls-1" d="M196.42,189.52H86.95a11.81,11.81,0,0,1-10.2-17.69l54.79-94.77a11.64,11.64,0,0,1,10.19-5.9h0a11.66,11.66,0,0,1,10.2,5.9l54.79,94.77a11.86,11.86,0,0,1-10.3,17.69ZM141.74,76.16h0a6.74,6.74,0,0,0-5.86,3.4L81.08,174.32a6.82,6.82,0,0,0,5.87,10.2H196.42a6.86,6.86,0,0,0,6-10.22L147.61,79.56A6.72,6.72,0,0,0,141.74,76.16Z" transform="translate(-36.6 -36.6)"/><path class="cls-1" d="M141.73,146a2.5,2.5,0,0,1-2.5-2.5V102.68a2.5,2.5,0,1,1,5,0v40.86A2.5,2.5,0,0,1,141.73,146Z" transform="translate(-36.6 -36.6)"/><path class="cls-1" d="M145.38,163.94a3.65,3.65,0,1,1-3.65-3.65A3.64,3.64,0,0,1,145.38,163.94Z" transform="translate(-36.6 -36.6)"/><path class="cls-1" d="M141.73,36.6A105.13,105.13,0,1,0,246.86,141.73,105.25,105.25,0,0,0,141.73,36.6Zm0,205.27A100.13,100.13,0,1,1,241.86,141.73,100.25,100.25,0,0,1,141.73,241.86Z" transform="translate(-36.6 -36.6)"/></svg>