<svg id="Dial" xmlns="http://www.w3.org/2000/svg" viewBox="0 0 210.27 210.27"><defs><style>.cls-1{fill:#231f20;}</style></defs><title>SBN Icon- Dial</title><path class="cls-1" d="M141.73,36.6A105.13,105.13,0,1,0,246.86,141.73,105.13,105.13,0,0,0,141.73,36.6Zm0,205.27A100.13,100.13,0,1,1,241.86,141.73,100.25,100.25,0,0,1,141.73,241.86Z" transform="translate(-36.6 -36.6)"/><path class="cls-1" d="M128.42,113.54a2.5,2.5,0,0,0-1.82,3l11.29,45.1a6.36,6.36,0,1,0,4.85-1.21l-11.29-45.11A2.5,2.5,0,0,0,128.42,113.54Z" transform="translate(-36.6 -36.6)"/><path class="cls-1" d="M203.13,141.73h0a61.19,61.19,0,0,0-17.73-43.09,2,2,0,0,0-.55-.55,61.19,61.19,0,0,0-43.1-17.73h0a61.19,61.19,0,0,0-43.1,17.73,1.94,1.94,0,0,0-.55.55,61.19,61.19,0,0,0-17.74,43.09v.05a61,61,0,0,0,4.29,22.48h-.16l1.67,3.56a61,61,0,0,0,10,15l.41.45q.66.72,1.35,1.41l.68.69c.36.35.72.7,1.09,1q1,.94,2,1.84l.25.21a61.18,61.18,0,0,0,28.81,13.67h.06q2.74.49,5.57.74l1.54.12,1.1.06c.8,0,1.61.06,2.41.06H142c.81,0,1.61,0,2.41-.06l1.1-.06,1.55-.12q2.8-.24,5.52-.73l.13,0a61.13,61.13,0,0,0,27-12.22l.28-.22q.67-.54,1.33-1.09l.94-.81.86-.76c.64-.59,1.27-1.19,1.89-1.8l.26-.27q1-1,1.87-2h0a61,61,0,0,0,10.17-15.19l1.67-3.56h-.17a61.05,61.05,0,0,0,4.29-22.49Zm-58.42,4.18a21.11,21.11,0,0,1,18.05,20.82v2.5h28.18a56.73,56.73,0,0,1-9.29,12.29l-.21.21c-.48.47-1,.94-1.46,1.39l-.57.53c-.45.4-.91.8-1.37,1.19s-.93.77-1.41,1.14l-.32.25a56.7,56.7,0,0,1-26.82,11.35l-.84.11q-1,.12-1.93.21l-1.63.12-.93,0c-.73,0-1.47.05-2.21.06h-.47c-.74,0-1.47,0-2.21-.06l-.93,0-1.61-.12q-1-.09-2-.21l-.79-.1a56.76,56.76,0,0,1-30.74-14.69l-.91-.87-.66-.65c-.55-.56-1.1-1.12-1.63-1.71l-.14-.16q-.84-.93-1.65-1.9l-.05-.06a56.64,56.64,0,0,1-5.69-8.32H120.7v-2.5a21.13,21.13,0,0,1,8.57-16.94,2.5,2.5,0,1,0-3-4,26.17,26.17,0,0,0-10.48,18.47H90a56,56,0,0,1-4.63-20H96.87a2.5,2.5,0,0,0,0-5H85.4a56.18,56.18,0,0,1,14.75-35.55l8.1,8.1a2.5,2.5,0,1,0,3.53-3.54l-8.1-8.09A56.17,56.17,0,0,1,139.23,85.4V96.87a2.5,2.5,0,0,0,2.5,2.5h0a2.5,2.5,0,0,0,2.5-2.5V85.4a56.17,56.17,0,0,1,35.55,14.75l-8.1,8.1a2.5,2.5,0,1,0,3.54,3.53l8.09-8.1a56.17,56.17,0,0,1,14.75,35.55H186.58a2.5,2.5,0,0,0,0,5h11.48a56,56,0,0,1-4.63,20H167.64A26.15,26.15,0,0,0,145.41,141a2.5,2.5,0,0,0-.7,5Z" transform="translate(-36.6 -36.6)"/></svg>