<svg id="Case" xmlns="http://www.w3.org/2000/svg" viewBox="0 0 210.27 210.27">
<defs><style>.cls-1{fill:#231f20;}</style></defs><title>SBN Icon- Case</title>
<path class="cls-1" d="M141.73,36.6A105.13,105.13,0,1,0,246.86,141.73,105.25,105.25,0,0,0,141.73,36.6Zm0,205.27A100.13,100.13,0,1,1,241.86,141.73,100.25,100.25,0,0,1,141.73,241.86Z" transform="translate(-36.6 -36.6)"/><path class="cls-1" d="M212.78,106.87a13.88,13.88,0,0,0-12.7-8.34H179.41a18.16,18.16,0,0,0-16.55-10.81H120.59a18,18,0,0,0-12.84,5.33A18.42,18.42,0,0,0,104,98.53H83.37a13.88,13.88,0,0,0-12.7,8.33,13.6,13.6,0,0,0-1.17,5.55v69.46a13.88,13.88,0,0,0,13.87,13.87h116.7a13.88,13.88,0,0,0,13.87-13.87V112.41A13.6,13.6,0,0,0,212.78,106.87ZM110.89,96.19a13.64,13.64,0,0,1,9.71-4h42.26a13.76,13.76,0,0,1,11.6,6.38H109A13.88,13.88,0,0,1,110.89,96.19Zm98.62,85.68a9.45,9.45,0,0,1-9.44,9.44H83.37a9.45,9.45,0,0,1-9.44-9.44V157.25c.3.28.66.51,1,.76s.56.47.87.67a13.88,13.88,0,0,0,1.4.76c.31.16.6.34.92.47a13.82,13.82,0,0,0,1.7.53c.29.08.56.19.85.25a13.86,13.86,0,0,0,2.73.28H132V164a9.7,9.7,0,1,0,19.4,0V161h48.65a13.86,13.86,0,0,0,2.73-.28c.29-.06.56-.17.85-.25a13.82,13.82,0,0,0,1.7-.53c.32-.13.61-.32.92-.47a13.88,13.88,0,0,0,1.4-.76c.31-.2.58-.44.87-.67s.68-.48,1-.76ZM136.45,161H147V164a5.27,5.27,0,1,1-10.54,0Zm63.62-4.43H83.37a9.45,9.45,0,0,1-9.44-9.44V112.41a9.19,9.19,0,0,1,.79-3.76A9.45,9.45,0,0,1,83.37,103h116.7a9.45,9.45,0,0,1,8.65,5.69,9.19,9.19,0,0,1,.79,3.75V147.1A9.45,9.45,0,0,1,200.08,156.53Z" transform="translate(-36.6 -36.6)"/>
</svg>