<svg id="Office" xmlns="http://www.w3.org/2000/svg" viewBox="0 0 210.27 210.27"><defs><style>.cls-1{fill:#231f20;}</style></defs><title>SBN Icon- Office</title><path class="cls-1" d="M141.73,246.86A105.13,105.13,0,1,1,246.86,141.73,105.25,105.25,0,0,1,141.73,246.86Zm0-205.27A100.13,100.13,0,1,0,241.86,141.73,100.25,100.25,0,0,0,141.73,41.6Z" transform="translate(-36.6 -36.6)"/><path class="cls-1" d="M92.81,79.06V204.4h40.26V175.08h17.32V204.4h40.26V79.06ZM122.89,192.4H105.57V175.08h17.32Zm0-26.74H105.57V148.34h17.32Zm0-26.74H105.57V121.6h17.32Zm0-26.74H105.57V94.86h17.32Zm27.5,53.48H133.07V148.34h17.32Zm0-26.74H133.07V121.6h17.32Zm0-26.74H133.07V94.86h17.32Zm27.5,80.22H160.57V175.08h17.32Zm0-26.74H160.57V148.34h17.32Zm0-26.74H160.57V121.6h17.32Zm0-26.74H160.57V94.86h17.32Z" transform="translate(-36.6 -36.6)"/></svg>