<svg id="Cloud" xmlns="http://www.w3.org/2000/svg" viewBox="0 0 210.27 210.27"><defs><style>.cls-1{fill:#231f20;}</style></defs><title>SBN Icon- Cloud</title><path class="cls-1" d="M141.73,36.6A105.13,105.13,0,1,0,246.86,141.73,105.25,105.25,0,0,0,141.73,36.6Zm0,205.27A100.13,100.13,0,1,1,241.86,141.73,100.25,100.25,0,0,1,141.73,241.86Z" transform="translate(-36.6 -36.6)"/><path class="cls-1" d="M175.68,116q-.87,0-1.74,0,.12-1.36.12-2.75a32.33,32.33,0,0,0-64.67,0q0,1.39.12,2.75-.87,0-1.74,0a32.33,32.33,0,0,0,0,64.66,2.7,2.7,0,0,0,0-5.41,26.92,26.92,0,0,1,0-53.84,25.72,25.72,0,0,1,4.44.38,2.7,2.7,0,0,0,3.12-3.21,26.15,26.15,0,0,1-.53-5.28,26.93,26.93,0,0,1,53.86,0,26.15,26.15,0,0,1-.53,5.28,2.7,2.7,0,0,0,3.12,3.21,25.72,25.72,0,0,1,4.44-.38,26.92,26.92,0,1,1,0,53.84,2.7,2.7,0,1,0,0,5.41,32.33,32.33,0,1,0,0-64.66Z" transform="translate(-36.6 -36.6)"/><rect class="cls-1" x="71.66" y="94.23" width="10.53" height="30.32" rx="3" ry="3"/><rect class="cls-1" x="85.76" y="85.72" width="10.53" height="38.83" rx="3" ry="3"/><rect class="cls-1" x="99.87" y="98.48" width="10.53" height="26.07" rx="3" ry="3"/><rect class="cls-1" x="113.98" y="105.13" width="10.53" height="19.42" rx="3" ry="3"/><rect class="cls-1" x="128.08" y="94.23" width="10.53" height="30.32" rx="3" ry="3"/><path class="cls-1" d="M143.9,173.36a2.5,2.5,0,0,0-4.33,0l-8.5,14.72a2.5,2.5,0,0,0,2.17,3.75h6v10.7a2.5,2.5,0,0,0,5,0v-10.7h6a2.5,2.5,0,0,0,2.17-3.75Z" transform="translate(-36.6 -36.6)"/></svg>