<svg id="Mail" xmlns="http://www.w3.org/2000/svg" viewBox="0 0 210.27 210.27"><defs><style>.cls-1{fill:#231f20;}</style></defs><title>SBN Icon- Mail</title><path class="cls-1" d="M141.73,36.6A105.13,105.13,0,1,0,246.86,141.73,105.25,105.25,0,0,0,141.73,36.6Zm0,205.27A100.13,100.13,0,1,1,241.86,141.73,100.25,100.25,0,0,1,141.73,241.86Z" transform="translate(-36.6 -36.6)"/><path class="cls-1" d="M205.3,98.61H78.16a2.5,2.5,0,0,0-2.5,2.5v81.25a2.5,2.5,0,0,0,2.5,2.5H205.3a2.5,2.5,0,0,0,2.5-2.5V101.11A2.5,2.5,0,0,0,205.3,98.61Zm-49.84,46a20,20,0,0,1-27.45,0l-43.55-41H199Zm-32.38,2.22L80.66,177.47V106.9Zm3.88,3.37a25,25,0,0,0,29.57,0l41.05,29.63H85.9Zm33.44-3.37,42.41-40v70.57Z" transform="translate(-36.6 -36.6)"/><path class="cls-1" d="M155.35,115.45a12,12,0,0,0-5-4.82,15.81,15.81,0,0,0-7.41-1.7,17.23,17.23,0,0,0-8.7,2.16,14.84,14.84,0,0,0-5.82,6,17.54,17.54,0,0,0-2,8.45q0,6.71,4,10.48t11.17,3.77a22.66,22.66,0,0,0,9-1.71v-3.62a29.08,29.08,0,0,1-4.71,1.29,24.27,24.27,0,0,1-4.39.44q-5.28,0-8.06-2.78t-2.78-8a14.84,14.84,0,0,1,1.5-6.81,10.46,10.46,0,0,1,4.31-4.51,13.38,13.38,0,0,1,6.62-1.56,10.92,10.92,0,0,1,5.23,1.23,8.57,8.57,0,0,1,3.55,3.55,11.07,11.07,0,0,1,1.26,5.36,12.42,12.42,0,0,1-.72,4.61q-.72,1.76-1.92,1.76-1.43,0-1.43-2.62l.43-9.22a19.68,19.68,0,0,0-3.21-.74,22.81,22.81,0,0,0-3.57-.31,9.11,9.11,0,0,0-6.6,2.43,8.49,8.49,0,0,0-2.53,6.41,7.61,7.61,0,0,0,1.92,5.49,6.93,6.93,0,0,0,5.26,2,6.46,6.46,0,0,0,5.18-2.43h.3a3.84,3.84,0,0,0,1.54,1.76,4.58,4.58,0,0,0,2.47.67,5.67,5.67,0,0,0,3.68-1.28,8.23,8.23,0,0,0,2.45-3.53,13.73,13.73,0,0,0,.87-5A14.4,14.4,0,0,0,155.35,115.45Zm-10.63,8.46a7.58,7.58,0,0,1-1.07,3.89,3,3,0,0,1-2.58,1.2q-3.24,0-3.24-4a5.81,5.81,0,0,1,1.31-4,4.65,4.65,0,0,1,3.67-1.47,10.34,10.34,0,0,1,2.17.21Z" transform="translate(-36.6 -36.6)"/></svg>