<svg id="Biogas" xmlns="http://www.w3.org/2000/svg" viewBox="0 0 210.27 210.27"><defs><style>.cls-1{fill:#231f20;}</style></defs><title>SBN Icon- Biogas</title><path class="cls-1" d="M141.73,36.6A105.13,105.13,0,1,0,246.86,141.73,105.25,105.25,0,0,0,141.73,36.6Zm0,205.27A100.13,100.13,0,1,1,241.86,141.73,100.25,100.25,0,0,1,141.73,241.86Z" transform="translate(-36.6 -36.6)"/><path class="cls-1" d="M99.87,169.38a23.38,23.38,0,0,1-12.51-4,2.5,2.5,0,0,0-2.81,4.14,28.4,28.4,0,0,0,15.19,4.9h.07a2.5,2.5,0,0,0,.06-5Z" transform="translate(-36.6 -36.6)"/><path class="cls-1" d="M74.44,139.34h.07a2.51,2.51,0,0,0,2.5-2.43,23.4,23.4,0,0,1,4.06-12.51,2.5,2.5,0,0,0-4.13-2.81A28.37,28.37,0,0,0,72,136.77,2.51,2.51,0,0,0,74.44,139.34Z" transform="translate(-36.6 -36.6)"/><path class="cls-1" d="M109.59,114.07h14.76a2.5,2.5,0,0,0,0-5H109.59a2.5,2.5,0,0,0,0,5Z" transform="translate(-36.6 -36.6)"/><path class="cls-1" d="M77,146.6a2.5,2.5,0,0,0-5,.15A28.27,28.27,0,0,0,77,161.92a2.5,2.5,0,0,0,4.13-2.83A23.32,23.32,0,0,1,77,146.6Z" transform="translate(-36.6 -36.6)"/><path class="cls-1" d="M85.92,118.58a2.56,2.56,0,0,0,1.41-.43,23.36,23.36,0,0,1,12.5-4.07,2.5,2.5,0,0,0-.07-5h-.08A28.28,28.28,0,0,0,84.51,114a2.5,2.5,0,0,0,1.41,4.56Z" transform="translate(-36.6 -36.6)"/><path class="cls-1" d="M124.4,169.39H109.64a2.5,2.5,0,0,0,0,5H124.4a2.5,2.5,0,0,0,0-5Z" transform="translate(-36.6 -36.6)"/><path class="cls-1" d="M183.7,109.09c-.24,0-.48,0-.73,0H134a2.5,2.5,0,0,0,.26,5H183a23.54,23.54,0,0,1,23.5,23.5v8.32a23.53,23.53,0,0,1-23.5,23.5H134.24a2.5,2.5,0,0,0-.13,5h49.23a28.52,28.52,0,0,0,28.13-28.49v-8.32A28.53,28.53,0,0,0,183.7,109.09Z" transform="translate(-36.6 -36.6)"/><path class="cls-1" d="M144.23,76.83a2.5,2.5,0,1,0-5,0v27.26h5Z" transform="translate(-36.6 -36.6)"/><path class="cls-1" d="M139.23,206.64a2.5,2.5,0,0,0,5,0V179.38h-5Z" transform="translate(-36.6 -36.6)"/><path class="cls-1" d="M137.57,157a22.24,22.24,0,0,1-2.1,2.81,2.5,2.5,0,1,0,3.72,3.34,27.6,27.6,0,0,0,4-5.87,14.63,14.63,0,0,0,6.18-2.77,12.8,12.8,0,0,0,5.45-9.7c.76-11.25-12.18-24.09-12.73-24.64a2.5,2.5,0,0,0-4.24,2c.48,5.38-2.19,8.9-4.77,12.29-.77,1-1.49,2-2.12,3-4.25,6.62-2.3,13.17,1.52,16.73A12.49,12.49,0,0,0,137.57,157Zm-2.38-16.87c.53-.83,1.19-1.7,1.9-2.62,2-2.57,4.23-5.57,5.27-9.54,3.64,4.55,7.86,11.2,7.49,16.52a7.9,7.9,0,0,1-3.45,6c-.28.21-.55.39-.83.57a41.33,41.33,0,0,0,1.1-13.28,2.5,2.5,0,0,0-5,.33A35.29,35.29,0,0,1,140.4,151c-.15.5-.35,1-.53,1.44a7.47,7.47,0,0,1-4-1.9C133.78,148.52,132.31,144.61,135.18,140.14Z" transform="translate(-36.6 -36.6)"/></svg>